<svg width="1686" height="316" viewBox="0 0 1686 316" fill="none" xmlns="http://www.w3.org/2000/svg">
<g clip-path="url(#clip0_78_12)">
<path d="M249.097 4.83594L148.943 261.591L48.3373 4.83594H0V312.065H36.1555V67.1649L132.38 312.066H165.055L261.279 67.1649V312.066H297.435V4.83594H249.097Z" fill="black"/>
<path d="M497.954 109.746C481.272 94.8069 458.708 87.3672 430.234 87.3672C405.57 87.3672 384.387 94.3835 366.685 108.416C348.952 122.478 339.08 140.169 337.07 161.521H370.166C371.035 149.242 377.127 138.779 388.439 130.16C399.78 121.511 413.402 117.216 429.365 117.216C447.668 117.216 462.04 121.813 472.481 131.037C482.953 140.231 488.174 152.6 488.174 168.114C488.174 176.007 483.523 179.969 474.222 179.969H424.595C397.86 179.969 376.617 186.199 360.805 198.628C344.963 211.058 337.072 227.812 337.072 248.891C337.072 269.062 344.033 285.242 357.955 297.369C371.907 309.526 390.33 315.605 413.253 315.605C430.386 315.605 445.718 311.795 459.221 304.174C472.723 296.583 482.354 286.482 488.175 273.901V312.066H523.01V169.445C523.01 144.555 514.669 124.656 497.957 109.747L497.954 109.746ZM488.172 212.448C488.172 235.281 482.081 253.184 469.869 266.219C457.687 279.223 440.555 285.755 418.502 285.755C404.549 285.755 393.448 282.398 385.167 275.654C376.916 268.91 372.775 259.838 372.775 248.436C372.775 235.553 377.635 225.392 387.356 217.922C397.078 210.482 410.22 206.732 426.753 206.732H488.171L488.172 212.448Z" fill="black"/>
<path d="M819.123 122.021V90.8714H751.613V20.1953H716.778V90.8707H618.814V20.1953H583.979V90.8707H538.252V122.02H583.979V242.716C583.979 264.097 590.22 280.972 602.702 293.432C615.184 305.862 631.866 312.061 652.78 312.061H686.295V280.912H618.815V122.02H716.779V242.716C716.779 264.097 722.96 280.972 735.292 293.432C747.623 305.862 764.396 312.061 785.579 312.061H819.124V280.912H751.614V122.02H819.124L819.123 122.021Z" fill="black"/>
<path d="M998.518 240.967C991.287 269.939 969.504 284.425 933.198 284.425C912.585 284.425 895.483 277.106 881.831 262.469C868.178 247.862 860.618 229.112 859.177 206.309H1030.74C1031.34 202.197 1031.61 197.085 1031.61 190.947C1031.61 160.795 1022.4 135.997 1003.98 116.551C985.527 97.0747 960.653 87.3672 929.299 87.3672C897.644 87.3672 872.32 97.8913 853.297 118.97C834.274 140.018 824.793 167.085 824.793 200.17C824.793 232.347 834.874 259.626 855.038 282.004C875.231 304.383 901.274 315.603 933.199 315.603C960.203 315.603 982.797 308.859 1000.92 295.402C1019.07 281.944 1030.02 263.799 1033.8 240.966H998.519L998.518 240.967ZM883.571 133.003C895.483 122.478 910.695 117.216 929.298 117.216C948.741 117.216 964.343 122.69 976.105 133.668C987.867 144.646 994.468 159.494 995.908 178.214H860.919C864.129 158.618 871.659 143.527 883.571 133.003Z" fill="black"/>
<path d="M1360.01 240.967C1352.75 269.939 1330.97 284.425 1294.69 284.425C1274.08 284.425 1256.95 277.106 1243.3 262.469C1229.64 247.862 1222.11 229.112 1220.67 206.309H1392.24C1392.81 202.197 1393.11 197.085 1393.11 190.947C1393.11 160.795 1383.9 135.997 1365.44 116.551C1347.02 97.0747 1322.12 87.3672 1290.76 87.3672C1259.14 87.3672 1233.79 97.8913 1214.79 118.97C1195.77 140.018 1186.26 167.085 1186.26 200.17C1186.26 232.347 1196.34 259.626 1216.53 282.004C1236.69 304.383 1262.74 315.603 1294.69 315.603C1321.7 315.603 1344.26 308.859 1362.41 295.402C1380.54 281.944 1391.52 263.799 1395.3 240.966H1360.01L1360.01 240.967ZM1245.04 133.003C1256.95 122.478 1272.19 117.216 1290.76 117.216C1310.21 117.216 1325.84 122.69 1337.6 133.668C1349.33 144.646 1355.93 159.494 1357.4 178.214H1222.41C1225.59 158.618 1233.15 143.527 1245.04 133.003Z" fill="black"/>
<path d="M1592.97 -0.0078125V126.858C1586.31 114.852 1576.35 105.265 1563.14 98.0978C1549.94 90.9302 1535.63 87.3619 1520.27 87.3619C1487.17 87.3619 1461.25 98.0373 1442.53 119.388C1423.8 140.739 1414.44 168.108 1414.44 201.465C1414.44 234.822 1423.8 262.191 1442.53 283.543C1461.25 304.894 1487.17 315.599 1520.27 315.599C1535.63 315.599 1549.94 311.94 1563.14 304.621C1576.35 297.303 1586.31 287.656 1592.97 275.649V312.06H1627.8V-0.0078125H1592.97ZM1576.23 261.375C1562.99 276.465 1545.38 283.996 1523.3 283.996C1501.22 283.996 1483.54 276.465 1470.19 261.375C1456.84 246.314 1450.15 226.354 1450.15 201.465C1450.15 176.577 1456.84 156.616 1470.19 141.556C1483.54 126.496 1501.24 118.965 1523.3 118.965C1545.35 118.965 1562.99 126.496 1576.23 141.556C1589.43 156.617 1596.03 176.607 1596.03 201.465C1596.03 226.324 1589.43 246.314 1576.23 261.375Z" fill="black"/>
<path d="M1187.97 90.8594V122.009H1100.42V312.05H1065.58V156.671C1065.58 120.324 1094.81 90.8594 1130.87 90.8594H1187.97Z" fill="black"/>
<path d="M1664.72 303.23V288.655H1672.09C1672.68 288.655 1673.33 288.826 1674.02 289.168C1674.72 289.497 1675.31 290.011 1675.79 290.709C1676.29 291.393 1676.54 292.262 1676.54 293.316C1676.54 294.382 1676.29 295.291 1675.77 296.041C1675.26 296.779 1674.64 297.338 1673.9 297.72C1673.18 298.102 1672.5 298.293 1671.85 298.293H1666.53V295.923H1670.87C1671.3 295.923 1671.77 295.706 1672.27 295.271C1672.78 294.837 1673.04 294.185 1673.04 293.316C1673.04 292.42 1672.78 291.815 1672.27 291.499C1671.77 291.183 1671.33 291.025 1670.95 291.025H1667.91V303.23H1664.72ZM1673.51 296.357L1677.13 303.23H1673.63L1670.08 296.357H1673.51ZM1670.24 311.92C1668.06 311.92 1666.02 311.512 1664.11 310.696C1662.21 309.879 1660.53 308.747 1659.09 307.299C1657.64 305.85 1656.51 304.172 1655.7 302.263C1654.88 300.353 1654.48 298.306 1654.48 296.12C1654.48 293.935 1654.88 291.887 1655.7 289.978C1656.51 288.069 1657.64 286.39 1659.09 284.942C1660.53 283.493 1662.21 282.361 1664.11 281.545C1666.02 280.728 1668.06 280.32 1670.24 280.32C1672.42 280.32 1674.46 280.728 1676.37 281.545C1678.27 282.361 1679.94 283.493 1681.39 284.942C1682.83 286.39 1683.96 288.069 1684.78 289.978C1685.59 291.887 1686 293.935 1686 296.12C1686 298.306 1685.59 300.353 1684.78 302.263C1683.96 304.172 1682.83 305.85 1681.39 307.299C1679.94 308.747 1678.27 309.879 1676.37 310.696C1674.46 311.512 1672.42 311.92 1670.24 311.92ZM1670.24 308.128C1672.44 308.128 1674.45 307.588 1676.27 306.509C1678.08 305.429 1679.52 303.981 1680.6 302.164C1681.68 300.347 1682.22 298.332 1682.22 296.12C1682.22 293.908 1681.68 291.894 1680.6 290.077C1679.52 288.26 1678.08 286.811 1676.27 285.732C1674.45 284.652 1672.44 284.112 1670.24 284.112C1668.03 284.112 1666.02 284.652 1664.21 285.732C1662.4 286.811 1660.95 288.26 1659.87 290.077C1658.8 291.894 1658.26 293.908 1658.26 296.12C1658.26 298.332 1658.8 300.347 1659.87 302.164C1660.95 303.981 1662.4 305.429 1664.21 306.509C1666.02 307.588 1668.03 308.128 1670.24 308.128Z" fill="black"/>
</g>
<defs>
<clipPath id="clip0_78_12">
<rect width="1686" height="316" fill="white"/>
</clipPath>
</defs>
</svg>
